<svg height="40" width="40" viewBox="0 0 682.6666666666666 682.6666666666666" preserveAspectRatio="xMidYMid meet" xmlns="http://www.w3.org/2000/svg" xmlns:bx="https://boxy-svg.com">
  <style>
    :root{
      --BusinessClass: rgb(106, 185, 255);
    }
  </style>
  <g transform="translate(-118,550.000000) scale(0.100000,-0.100000)" fill="#000000" stroke="none">
    <rect x="1229.944" y="-4248.53" width="5003.493" height="3154.529" style="fill: var(--BusinessClass);" transform="matrix(1, 0, 0, -1, 0, 0)" rx="282.285" ry="282.285"/>
    <path stroke-width="0" d="M 3590.48 5427.14 C 3794.2 5431.9 4034.48 5410.48 4260.91 5384.79 C 4488.51 5358.97 4766.9 5316.63 4924.27 5264.83 C 5028.27 5230.59 5070.51 5185.16 5097.17 5166.03 C 5106.46 5159.36 5144.98 5130.34 5150.1 5123.68 C 5158.62 5112.62 5205.35 5120.94 5224.2 5102.51 C 5250.41 5076.89 5283 5047.61 5301.82 5028.41 C 5311.25 5018.79 5328.56 4990.24 5337.12 4979.02 C 5355.2 4955.29 5378.38 4911.47 5400.62 4866.1 C 5421.25 4824.01 5459.67 4769.09 5450.02 4724.96 C 5439.32 4676.04 5439.84 4621.69 5382.98 4587.35 C 5308.8 4542.54 5174.94 4536.29 5044.24 4523.83 C 4886.62 4508.81 4664.06 4515.17 4493.79 4516.77 C 4339.43 4518.23 4223.51 4536.75 4063.3 4530.89 C 3876.63 4524.06 3682.11 4479.13 3435.22 4467.37 C 3126.81 4452.69 2541.45 4454.76 2334.31 4467.37 C 2231.17 4473.66 2191 4475.52 2143.77 4495.6 C 2106.68 4511.37 2079.64 4534.69 2062.61 4562.65 C 2045.86 4590.15 2036.29 4629.26 2041.44 4661.45 C 2046.84 4695.2 2092.1 4728.91 2097.9 4760.24 C 2102.91 4787.31 2076.35 4805.83 2083.78 4837.87 C 2094.99 4886.19 2127.73 4960.77 2200.22 5024.89 C 2312.43 5124.13 2612.39 5274.83 2778.91 5335.4 C 2907.57 5382.2 2992.62 5383.78 3117.65 5398.91 C 3259.64 5416.1 3414.65 5423.03 3590.48 5427.14 Z" style="stroke-width: 2px; fill: var(--BusinessClass);"/>
    <rect x="1240.53" y="-4082.689" width="5003.493" height="4213.096" style="fill: var(--BusinessClass);" transform="matrix(1, 0, 0, -1, 0, 0)" rx="931.539" ry="931.539"/>
    <rect x="1738.056" y="-4566.101" width="3994.326" height="529.283" style="fill: var(--BusinessClass);" transform="matrix(1, 0, 0, -1, 0, 0)" rx="366.97" ry="366.97"/>
    <path d="M 1892.749 4592.487 C 1538.748 4528.487 1252.748 4238.487 1190.748 3881.487 C 1177.748 3804.487 1175.748 3577.487 1177.748 2083.487 C 1180.748 758.486 1183.748 365.486 1193.748 338.486 C 1216.748 270.486 1276.748 205.486 1349.748 168.486 C 1413.748 136.486 1422.748 134.486 1541.748 130.486 L 1665.748 126.486 L 1672.748 99.486 C 1702.748 -27.514 1819.749 -140.514 1959.749 -177.514 C 2035.749 -197.514 5435.749 -197.514 5511.749 -177.514 C 5651.749 -140.514 5768.749 -27.514 5798.749 99.486 L 5805.749 126.486 L 5929.749 130.486 C 6048.75 134.486 6057.75 136.486 6121.75 168.486 C 6194.75 205.486 6254.75 270.486 6277.75 338.486 C 6287.75 365.486 6290.75 758.486 6293.75 2083.487 C 6295.75 3577.487 6293.75 3804.487 6280.75 3881.487 C 6218.75 4242.487 5931.749 4530.487 5570.749 4593.487 C 5444.749 4615.487 2014.749 4614.487 1892.749 4592.487 Z M 5620.749 4429.487 C 5870.749 4345.487 6033.75 4182.487 6117.75 3933.487 L 6140.75 3863.487 L 6143.75 2137.487 L 6145.75 412.486 L 6122.75 368.486 C 6085.75 297.486 6037.75 278.486 5901.749 278.486 C 5805.749 278.486 5783.749 281.486 5745.749 301.486 C 5719.749 314.486 5692.749 337.486 5680.749 358.486 C 5660.749 393.486 5660.749 410.486 5655.749 2058.487 L 5650.749 3723.487 L 5624.749 3779.487 C 5591.749 3850.487 5537.749 3904.487 5466.749 3937.487 L 5410.749 3963.487 L 3735.749 3963.487 L 2060.749 3963.487 L 2004.749 3937.487 C 1933.749 3904.487 1879.749 3850.487 1846.749 3779.487 L 1820.749 3723.487 L 1815.749 2058.487 C 1810.749 410.486 1810.749 393.486 1790.749 358.486 C 1778.749 337.486 1751.748 314.486 1725.748 301.486 C 1687.748 281.486 1665.748 278.486 1569.748 278.486 C 1433.748 278.486 1385.748 297.486 1348.748 368.486 L 1325.748 412.486 L 1327.748 2137.487 L 1330.748 3863.487 L 1353.748 3933.487 C 1446.748 4210.487 1662.748 4402.487 1933.749 4448.487 C 1959.749 4452.487 2783.749 4455.487 3765.749 4454.487 L 5550.749 4453.487 L 5620.749 4429.487 Z M 5398.749 3804.487 C 5437.749 3788.487 5480.749 3743.487 5494.749 3705.487 C 5500.749 3689.487 5505.749 3629.487 5505.749 3570.487 C 5505.749 3446.487 5488.749 3396.487 5434.749 3357.487 L 5400.749 3333.487 L 3735.749 3333.487 L 2070.749 3333.487 L 2036.749 3357.487 C 1982.749 3396.487 1965.749 3446.487 1965.749 3570.487 C 1965.749 3687.487 1973.749 3719.487 2013.749 3762.487 C 2068.749 3821.487 1960.749 3817.487 3733.749 3818.487 C 5098.749 3818.487 5371.749 3816.487 5398.749 3804.487 Z M 2035.749 3192.487 C 2054.749 3185.487 2103.749 3179.487 2143.749 3178.487 C 2184.749 3178.487 2215.749 3175.487 2213.749 3170.487 C 2212.749 3166.487 2198.749 3138.487 2183.749 3108.487 C 2168.749 3078.487 2151.749 3029.487 2145.749 2999.487 C 2132.749 2930.486 2132.749 2462.487 2145.749 2384.487 C 2173.749 2213.487 2314.749 2080.487 2493.749 2057.487 C 2581.749 2046.487 4889.749 2046.487 4977.749 2057.487 C 5156.749 2080.487 5297.749 2213.487 5325.749 2384.487 C 5338.749 2462.487 5338.749 2930.486 5325.749 2999.487 C 5319.749 3029.487 5302.749 3078.487 5287.749 3108.487 C 5272.749 3138.487 5259.749 3166.487 5257.749 3170.487 C 5255.749 3175.487 5286.749 3178.487 5327.749 3178.487 C 5392.749 3179.487 5424.749 3186.487 5487.749 3213.487 C 5504.749 3220.487 5505.749 3143.487 5507.749 1792.487 L 5510.749 363.486 L 5538.749 305.486 C 5555.749 271.486 5586.749 231.486 5615.749 206.486 L 5663.749 165.486 L 5649.749 125.486 C 5629.749 67.486 5591.749 23.486 5537.749 -8.514 L 5490.749 -36.514 L 3735.749 -36.514 L 1980.749 -36.514 L 1933.749 -8.514 C 1879.749 23.486 1841.749 67.486 1821.749 125.486 L 1807.749 165.486 L 1855.749 206.486 C 1884.749 231.486 1915.749 271.486 1932.749 305.486 L 1960.749 363.486 L 1963.749 1792.487 C 1965.749 3143.487 1966.749 3220.487 1983.749 3213.487 C 1992.749 3209.487 2016.749 3199.487 2035.749 3192.487 Z M 5035.749 3152.487 C 5089.749 3127.487 5129.749 3088.487 5159.749 3033.487 C 5179.749 2995.487 5180.749 2981.486 5180.749 2688.486 C 5180.749 2394.487 5179.749 2382.487 5158.749 2343.487 C 5146.749 2321.487 5122.749 2289.487 5103.749 2271.487 C 5033.749 2204.487 5126.749 2208.487 3735.749 2208.487 C 2344.749 2208.487 2437.749 2204.487 2367.749 2271.487 C 2348.749 2289.487 2324.749 2321.487 2312.749 2343.487 C 2291.749 2382.487 2290.749 2394.487 2290.749 2688.486 C 2290.749 2981.486 2291.749 2995.487 2311.749 3033.487 C 2350.749 3106.487 2405.749 3149.487 2482.749 3167.487 C 2504.749 3172.487 3051.749 3175.487 3755.749 3175.487 C 4988.749 3173.487 4990.749 3173.487 5035.749 3152.487 Z" style="" transform="matrix(-1, 0, 0, -1, 7471.498128, 4416.981261)"/>
    <path style="fill: none; stroke: rgb(0, 0, 0); stroke-width: 140px;" d="M 2107.028 4535.603 C 2049.177 4470.946 1970.56 4835.652 2239.022 5061.465 C 2862.238 5585.673 4751.391 5496.861 5267.925 5053.598 C 5477.774 4887.479 5486.452 4554.421 5388.622 4516.14"/>
  </g>
</svg>