<svg height="25" width="25" viewBox="0 0 682.6666666666666 682.6666666666666" xmlns="http://www.w3.org/2000/svg" xmlns:bx="https://boxy-svg.com">
  <style>
    :root{
      --EconomyClass: rgb(144, 216, 127);
    }
  </style>
  <g transform="matrix(0.1, 0, 0, -0.1, 0, 512)" fill="#000000" stroke="none">
    <rect x="126.096" y="-4561.283" width="4886.009" height="1604.117" style="fill: var(--EconomyClass);" transform="matrix(1, 0, 0, -1, 0, 0)" rx="180.054" ry="180.054"/>
    <rect x="85.174" y="-4332.125" width="4943.3" height="4108.504" style="fill: var(--EconomyClass);" transform="matrix(1, 0, 0, -1, 0, 0)" rx="785.69" ry="785.69"/>
    <rect x="600.783" y="-4896.839" width="3912.081" height="409.213" style="fill: var(--EconomyClass);" transform="matrix(1, 0, 0, -1, 0, 0)" rx="204.607" ry="204.607"/>
    <path d="M 717 4944 C 363 4880 77 4590 15 4233 C 2 4156 0 3929 2 2435 C 5 1110 8 717 18 690 C 41 622 101 557 174 520 C 238 488 247 486 366 482 L 490 478 L 497 451 C 527 324 644 211 784 174 C 860 154 4260 154 4336 174 C 4476 211 4593 324 4623 451 L 4630 478 L 4754 482 C 4873 486 4882 488 4946 520 C 5019 557 5079 622 5102 690 C 5112 717 5115 1110 5118 2435 C 5120 3929 5118 4156 5105 4233 C 5043 4594 4756 4882 4395 4945 C 4269 4967 839 4966 717 4944 Z M 4445 4781 C 4695 4697 4858 4534 4942 4285 L 4965 4215 L 4968 2489 L 4970 764 L 4947 720 C 4910 649 4862 630 4726 630 C 4630 630 4608 633 4570 653 C 4544 666 4517 689 4505 710 C 4485 745 4485 762 4480 2410 L 4475 4075 L 4449 4131 C 4416 4202 4362 4256 4291 4289 L 4235 4315 L 2560 4315 L 885 4315 L 829 4289 C 758 4256 704 4202 671 4131 L 645 4075 L 640 2410 C 635 762 635 745 615 710 C 603 689 576 666 550 653 C 512 633 490 630 394 630 C 258 630 210 649 173 720 L 150 764 L 152 2489 L 155 4215 L 178 4285 C 271 4562 487 4754 758 4800 C 784 4804 1608 4807 2590 4806 L 4375 4805 L 4445 4781 Z M 4223 4156 C 4262 4140 4305 4095 4319 4057 C 4325 4041 4330 3981 4330 3922 C 4330 3798 4313 3748 4259 3709 L 4225 3685 L 2560 3685 L 895 3685 L 861 3709 C 807 3748 790 3798 790 3922 C 790 4039 798 4071 838 4114 C 893 4173 785 4169 2558 4170 C 3923 4170 4196 4168 4223 4156 Z M 860 3544 C 888 3533 1205 3531 2560 3531 C 4260 3531 4231 3530 4312 3565 C 4329 3572 4330 3495 4332 2144 L 4335 715 L 4363 657 C 4380 623 4411 583 4440 558 L 4488 517 L 4474 477 C 4454 419 4416 375 4362 343 L 4315 315 L 2560 315 L 805 315 L 758 343 C 704 375 666 419 646 477 L 632 517 L 680 558 C 709 583 740 623 757 657 L 785 715 L 788 2144 C 790 3495 791 3572 808 3565 C 817 3561 841 3551 860 3544 Z" style="fill-rule: nonzero;" transform="matrix(-1, 0, 0, -1, 5119.999924, 5120.008416)"/>
  </g>
</svg>